<?xml version="1.0" encoding="UTF-8" standalone="no"?>
<svg
   xmlns:dc="http://purl.org/dc/elements/1.1/"
   xmlns:cc="http://creativecommons.org/ns#"
   xmlns:rdf="http://www.w3.org/1999/02/22-rdf-syntax-ns#"
   xmlns:svg="http://www.w3.org/2000/svg"
   xmlns="http://www.w3.org/2000/svg"
   xmlns:xlink="http://www.w3.org/1999/xlink"
   xmlns:sodipodi="http://sodipodi.sourceforge.net/DTD/sodipodi-0.dtd"
   xmlns:inkscape="http://www.inkscape.org/namespaces/inkscape"
   width="594mm"
   height="106mm"
   viewBox="0 0 594 106"
   version="1.1"
   id="svg8"
   inkscape:version="1.0.2-2 (e86c870879, 2021-01-15)"
   sodipodi:docname="navbar-logo.svg">
  <defs
     id="defs2">
    <linearGradient
       inkscape:collect="always"
       id="linearGradient841">
      <stop
         style="stop-color:#000000;stop-opacity:1;"
         offset="0"
         id="stop837" />
      <stop
         style="stop-color:#000000;stop-opacity:0;"
         offset="1"
         id="stop839" />
    </linearGradient>
    <linearGradient
       inkscape:collect="always"
       xlink:href="#linearGradient841"
       id="linearGradient845"
       x1="45.164459"
       y1="101.97828"
       x2="103.72917"
       y2="101.97828"
       gradientUnits="userSpaceOnUse" />
  </defs>
  <sodipodi:namedview
     id="base"
     pagecolor="#ffffff"
     bordercolor="#666666"
     borderopacity="1.0"
     inkscape:pageopacity="0.0"
     inkscape:pageshadow="2"
     inkscape:zoom="0.49497475"
     inkscape:cx="975.22433"
     inkscape:cy="428.82809"
     inkscape:document-units="mm"
     inkscape:current-layer="text835"
     inkscape:document-rotation="0"
     showgrid="false"
     inkscape:window-width="1366"
     inkscape:window-height="705"
     inkscape:window-x="-8"
     inkscape:window-y="-8"
     inkscape:window-maximized="1"
     height="110mm" />
  <metadata
     id="metadata5">
    <rdf:RDF>
      <cc:Work
         rdf:about="">
        <dc:format>image/svg+xml</dc:format>
        <dc:type
           rdf:resource="http://purl.org/dc/dcmitype/StillImage" />
        <dc:title />
      </cc:Work>
    </rdf:RDF>
  </metadata>
  <g
     inkscape:label="Layer 1"
     inkscape:groupmode="layer"
     id="layer1">
    <g
       aria-label="PRÓT(3D)SIS"
       id="text835"
       style="font-style:normal;font-weight:normal;font-size:10.5833px;line-height:1.25;font-family:sans-serif;fill:url(#linearGradient845);fill-opacity:1;stroke:none;stroke-width:0.264583">
      <path
         d="M 35.109794,75.503609 V 54.773868 q 7.122232,0 7.122232,-5.443041 0,-4.979706 -5.44301,-4.979706 -5.500913,0 -5.500913,6.83271 V 102.83446 H 7.7789605 V 53.615809 q 0,-7.643407 1.5055056,-12.507362 1.5634179,-4.921887 5.2692909,-9.148904 4.169108,-4.690251 10.422777,-7.41175 6.253672,-2.721513 12.912668,-2.721513 12.044091,0 20.208607,8.106611 8.222413,8.106563 8.222413,20.092771 0,11.638846 -7.353852,18.876849 -6.716905,6.659028 -20.266506,6.659028 z"
         style="font-style:normal;font-variant:normal;font-weight:normal;font-stretch:normal;font-size:10.5833px;font-family:'Bauhaus 93';-inkscape-font-specification:'Bauhaus 93, ';fill:#2a7fff;fill-opacity:1;stroke-width:2.96472"
         id="path880" />
      <path
         d="M 99.557292,45.045956 V 102.83446 H 76.048145 V 23.795037 H 106.2163 q 13.78122,0 21.36669,6.832712 8.45403,7.643316 8.45403,19.397913 0,11.986207 -10.48068,20.208586 l 13.54962,32.600212 H 114.43871 L 103.03156,77.356501 V 57.032163 h 1.85293 q 7.41175,0 7.41175,-6.369484 0,-5.616723 -8.56983,-5.616723 z"
         style="font-style:normal;font-variant:normal;font-weight:normal;font-stretch:normal;font-size:10.5833px;font-family:'Bauhaus 93';-inkscape-font-specification:'Bauhaus 93, ';fill:#2a7fff;fill-opacity:1;stroke-width:2.96472"
         id="path882" />
      <path
         d="m 184.44503,21.82628 q 16.79224,0 28.77844,12.217824 12.04405,12.217842 12.04405,29.241685 0,17.313386 -12.10195,29.415345 -12.10201,12.102096 -29.41539,12.102096 -17.19758,0 -29.35749,-12.159915 -12.15991,-12.160001 -12.15991,-29.357526 0,-17.371317 12.21782,-29.415401 12.2757,-12.044108 29.99443,-12.044108 z m -0.69484,23.277495 q -7.23805,0 -12.33362,5.327291 -5.09559,5.327179 -5.09559,12.854723 0,7.527547 5.09559,12.854722 5.15349,5.327179 12.33362,5.327179 7.29595,0 12.33361,-5.269245 5.09559,-5.327179 5.09559,-12.912656 0,-7.585475 -5.09559,-12.854723 -5.03766,-5.327291 -12.33361,-5.327291 z M 206.15915,1.4439649 189.94595,17.251847 H 175.52778 L 189.94595,1.4439649 Z"
         style="font-style:normal;font-variant:normal;font-weight:normal;font-stretch:normal;font-size:10.5833px;font-family:'Bauhaus 93';-inkscape-font-specification:'Bauhaus 93, ';fill:#2a7fff;fill-opacity:1;stroke-width:2.96472"
         id="path884" />
      <path
         d="M 270.72243,46.493556 V 102.83446 H 247.21328 V 46.493556 H 229.20502 V 23.795037 h 59.46773 v 22.698519 z"
         style="font-style:normal;font-variant:normal;font-weight:normal;font-stretch:normal;font-size:10.5833px;font-family:'Bauhaus 93';-inkscape-font-specification:'Bauhaus 93, ';fill:#2a7fff;fill-opacity:1;stroke-width:2.96472"
         id="path886" />
      <path
         d="m 299.39152,23.795037 h 41.8648 l -12.91266,30.399744 q 6.94855,4.690277 10.07535,10.306997 3.18476,5.558789 3.18476,13.202197 0,11.407123 -8.39615,19.282141 -8.39611,7.817114 -20.67184,7.817114 -6.77479,0 -13.4338,-2.54785 V 79.90434 q 5.03769,3.126814 8.74356,3.126814 4.05329,0 6.77481,-2.895201 2.77939,-2.895201 2.77939,-7.180183 0,-4.921888 -4.11119,-7.817087 -4.1112,-2.953133 -11.00183,-2.953133 l 5.84836,-15.576243 h -8.74356 z"
         style="font-style:normal;font-variant:normal;font-weight:normal;font-stretch:normal;font-size:10.5833px;font-family:'Bauhaus 93';-inkscape-font-specification:'Bauhaus 93, ';fill:#2a7fff;fill-opacity:1;stroke-width:2.96472"
         id="path890" />
      <path
         d="M 360.97259,70.762181 V 103.8738 H 347.15625 V 57.422255 h 18.0021 q 11.84255,0 18.54657,5.376798 7.96312,6.431716 7.96312,17.457623 0,10.549391 -6.80611,17.219345 -6.80608,6.670019 -17.52566,6.670019 -1.25912,0 -4.11768,-0.13642 V 90.363372 h 2.212 q 12.08078,0 12.08078,-10.106989 0,-9.494498 -11.87659,-9.494498 z"
         style="font-style:normal;font-variant:normal;font-weight:normal;font-stretch:normal;font-size:10.5833px;font-family:'Bauhaus 93';-inkscape-font-specification:'Bauhaus 93, ';fill:#2a7fff;fill-opacity:1;stroke-width:1.74236"
         id="path892" />
      <path
         d="m 436.96234,23.447611 v 22.524791 q -2.54779,-0.868404 -3.93751,-0.868404 -2.66359,0 -4.57442,1.968755 -1.91083,1.968755 -1.91083,4.748207 0,2.374046 2.08453,6.022014 l 1.79503,3.126811 q 4.86396,8.454104 4.86396,16.32901 0,11.522984 -8.22241,19.513864 -8.16451,7.990801 -19.97699,7.990801 -5.6746,0 -11.23342,-2.60579 V 79.325479 q 3.35845,2.142436 5.96413,2.142436 3.06893,0 5.09558,-1.737032 2.08457,-1.795073 2.08457,-4.458663 0,-1.737141 -3.30055,-7.585474 -5.26931,-9.264688 -5.26931,-18.529376 0,-11.175512 7.93291,-19.224254 7.99079,-8.106611 19.05052,-8.106611 4.86396,0 9.55421,1.62133 z"
         style="font-style:normal;font-variant:normal;font-weight:normal;font-stretch:normal;font-size:10.5833px;font-family:'Bauhaus 93';-inkscape-font-specification:'Bauhaus 93, ';fill:#2a7fff;fill-opacity:1;stroke-width:2.96472"
         id="path896" />
      <path
         d="m 525.32425,23.447611 v 22.524791 q -2.54771,-0.868404 -3.9375,-0.868404 -2.6636,0 -4.5744,1.968755 -1.91083,1.968755 -1.91083,4.748207 0,2.374046 2.0845,6.022014 l 1.79506,3.126811 q 4.86396,8.454104 4.86396,16.32901 0,11.522984 -8.22236,19.513864 -8.16456,7.990801 -19.97699,7.990801 -5.67466,0 -11.23343,-2.60579 V 79.325479 q 3.35841,2.142436 5.96407,2.142436 3.06899,0 5.09558,-1.737032 2.08461,-1.795073 2.08461,-4.458663 0,-1.737141 -3.30061,-7.585474 -5.26924,-9.264688 -5.26924,-18.529376 0,-11.175512 7.93295,-19.224254 7.99076,-8.106611 19.05041,-8.106611 4.86407,0 9.55422,1.62133 z"
         style="font-style:normal;font-variant:normal;font-weight:normal;font-stretch:normal;font-size:10.5833px;font-family:'Bauhaus 93';-inkscape-font-specification:'Bauhaus 93, ';fill:#2a7fff;fill-opacity:1;stroke-width:2.96472"
         id="path900" />
      <g
         id="g920"
         transform="matrix(0.16806689,0,0,0.16806689,415.96368,15.686728)"
         style="fill:#2a7fff">
        <path
           d="m 349.59067,42.064022 c -4.699,0 -9.098,1.302 -12.86,3.562 -4.174,-8.047 -12.579,-13.562 -22.254,-13.562 -4.699,0 -9.098,1.302 -12.86,3.562 -4.174,-8.047 -12.579,-13.562 -22.253,-13.562 -9.983,0 -18.618,5.87 -22.643,14.338 -3.675,-2.119 -7.932,-3.338 -12.471,-3.338 -13.816,0 -25.057,11.24 -25.057,25.057 V 215.44701 c -2.863,-2.458 -5.324,-5.404 -7.201,-8.667 l -16.231,-28.214 c -3.289,-5.67 -8.588,-9.719 -14.923,-11.402 -6.333,-1.683 -12.945,-0.799 -18.614,2.49 -5.67,3.289 -9.719,8.588 -11.402,14.923 -1.684,6.334 -0.799,12.945 2.478,18.594 l 24.304,42.201 c 4.238,7.359 10.36,13.483 17.715,17.723 l 30.549,19.995 c 4.144,9.323 10.066,17.679 17.339,24.646 l -4.585,13.015 c -19.806,56.217 -25.081,117.004 -15.253,175.79 l 3.442,20.594 c 1.439,8.608 8.818,14.855 17.546,14.855 h 28.961 c 4.142,0 7.5,-3.358 7.5,-7.5 0,-4.142 -3.358,-7.5 -7.5,-7.5 h -28.961 c -1.369,0 -2.525,-0.98 -2.751,-2.329 l -3.442,-20.594 c -1.045,-6.253 -1.902,-12.53 -2.591,-18.821 0.38,-0.257 0.745,-0.548 1.083,-0.883 l 44.388,-43.907 c 1.424,-1.409 2.226,-3.329 2.226,-5.332 v -96.988 c 4.436,0.79 8.993,1.225 13.652,1.225 4.659,0 9.216,-0.435 13.651,-1.225 v 96.988 c 0,2.003 0.802,3.923 2.226,5.332 l 44.025,43.548 c -0.71,6.707 -1.614,13.399 -2.728,20.064 l -3.442,20.593 c -0.226,1.35 -1.383,2.329 -2.751,2.329 h -44.583 c -4.142,0 -7.5,3.358 -7.5,7.5 0,4.142 3.358,7.5 7.5,7.5 h 44.583 c 8.728,0 16.106,-6.247 17.546,-14.856 l 3.442,-20.593 c 9.828,-58.786 4.554,-119.574 -15.252,-175.792 l -4.188,-11.885 c 15.477,-14.217 25.198,-34.608 25.198,-57.231 v -0.899 c 0,-4.142 -3.357,-7.5 -7.5,-7.5 -4.143,0 -7.5,3.358 -7.5,7.5 v 0.899 c 0,34.588 -28.14,62.727 -62.728,62.727 -34.588,0 -62.727,-28.139 -62.727,-62.727 v -73.258 h 27.613 35.113 35.113 27.614 v 42.358 c 0,4.142 3.357,7.5 7.5,7.5 4.143,0 7.5,-3.358 7.5,-7.5 V 67.121022 c 0.001,-13.817 -11.24,-25.057 -25.056,-25.057 z m -10.102,283.669988 c 14.536,41.257 20.887,85.085 18.83,128.651 l -32.747,-32.392 v -98.128 c 3.929,-1.564 7.707,-3.426 11.292,-5.583 z m -71.22,96.259 -34.259,33.888 c -2.276,-44.058 4.058,-88.418 18.76,-130.147 l 2.911,-8.263 c 3.97,2.496 8.18,4.638 12.588,6.393 z m 81.322,-364.928988 c 5.546,0 10.058,4.511 10.058,10.057 v 37.315998 h -20.114 V 67.121022 c -0.001,-5.546 4.511,-10.057 10.056,-10.057 z m -35.114,-10 c 5.545,0 10.057,4.511 10.057,10.057 v 10 37.315998 h -20.113 V 57.121022 c 0,-5.546 4.512,-10.057 10.056,-10.057 z m -35.113,-10 c 5.545,0 10.057,4.511 10.057,10.057 v 10 47.315998 h -20.113 V 47.121022 c 0,-5.546 4.511,-10.057 10.056,-10.057 z m -35.114,11 c 5.545,0 10.057,4.511 10.057,10.057 v 46.315998 h -20.113 V 58.121022 c 0,-5.546 4.511,-10.057 10.056,-10.057 z m -78.932,140.363988 c 0.654,-2.462 2.229,-4.523 4.433,-5.801 2.204,-1.278 4.771,-1.623 7.235,-0.968 2.462,0.654 4.522,2.229 5.787,4.409 l 10.606,18.438 -15.897,10.599 -11.196,-19.441 c -1.278,-2.204 -1.622,-4.773 -0.968,-7.236 z m 38.031,61.994 c -0.129,-0.085 -0.261,-0.165 -0.395,-0.241 -5.133,-2.924 -9.404,-7.176 -12.352,-12.295 l -5.617,-9.753 16.031,-10.689 c 3.266,4.76 7.388,8.962 12.104,12.267 l 5.993,4.201 c 0.026,0.019 0.055,0.033 0.081,0.051 v 17.671 c 0,3.238 0.222,6.423 0.609,9.558 z m 30.845,-87.046 v -43.939 h 20.113 v 43.939 z m 35.114,-43.939 h 20.113 v 43.939 h -20.113 z m 35.113,0 h 20.113 v 43.939 h -20.113 z m 35.113,0 h 20.114 v 43.939 h -20.114 z"
           id="path916"
           style="fill:#2a7fff" />
        <path
           d="m 289.566,181.822 c -20.667,0 -37.48,16.814 -37.48,37.48 0,20.666 16.813,37.48 37.48,37.48 20.667,0 37.48,-16.813 37.48,-37.48 0,-20.667 -16.813,-37.48 -37.48,-37.48 z m 0,15 c 2.467,0 4.84,0.405 7.062,1.143 l -25.97,33.474 c -2.257,-3.503 -3.572,-7.668 -3.572,-12.136 -0.001,-12.396 10.084,-22.481 22.48,-22.481 z m 0,44.961 c -2.467,0 -4.84,-0.405 -7.062,-1.143 l 25.97,-33.474 c 2.257,3.504 3.572,7.668 3.572,12.136 0,12.397 -10.085,22.481 -22.48,22.481 z"
           id="path918"
           style="fill:#2a7fff" />
      </g>
    </g>
  </g>
</svg>
